HIERARCHY
ROOT hip
{
  OFFSET 0.00112043 5.09927 -9.65472
  CHANNELS 6 Xposition Yposition Zposition Zrotation Xrotation Yrotation
  JOINT abdomen
  {
    OFFSET 0 -1.186 -1.5018
    CHANNELS 3 Zrotation Xrotation Yrotation
    JOINT abdomen2
    {
      OFFSET 0 9.964 0.2134
      CHANNELS 3 Zrotation Xrotation Yrotation
      JOINT chest
      {
        OFFSET 0 13.134 -3.2573
        CHANNELS 3 Zrotation Xrotation Yrotation
        JOINT neck
        {
          OFFSET 0 20.686 -1.6905
          CHANNELS 3 Zrotation Xrotation Yrotation
          JOINT head
          {
            OFFSET 0 7.238 -0.1237
            CHANNELS 3 Zrotation Xrotation Yrotation
            End Site
            {
              OFFSET 0 0 0
            }
          }
        }
        JOINT lCollar
        {
          OFFSET 1.7069 20.075 5.0056
          CHANNELS 3 Zrotation Xrotation Yrotation
          JOINT lShldr
          {
            OFFSET 13.6458 -0.047 -4.849
            CHANNELS 3 Zrotation Xrotation Yrotation
            JOINT lForeArm
            {
              OFFSET 28.3255 -0.9759 2.2888
              CHANNELS 3 Zrotation Xrotation Yrotation
              JOINT lHand
              {
                OFFSET 22.1583 -0.53 10.8316
                CHANNELS 3 Zrotation Xrotation Yrotation
                JOINT lThumb1
                {
                  OFFSET 0.786 0.112 2.5817
                  CHANNELS 3 Zrotation Xrotation Yrotation
                  JOINT lThumb2
                  {
                    OFFSET 0.3601 -0.878 4.2331
                    CHANNELS 3 Zrotation Xrotation Yrotation
                    JOINT lThumb2_End
                    {
                      OFFSET 1.8127 -1.216 2.2227
                      CHANNELS 3 Zrotation Xrotation Yrotation
                      End Site
                      {
                        OFFSET 0.0181 -0.0122 0.0222
                      }
                    }
                  }
                }
                JOINT lCarpal1
                {
                  OFFSET 0.9571 1.114 1.7695
                  CHANNELS 3 Zrotation Xrotation Yrotation
                  JOINT lIndex1
                  {
                    OFFSET 4.1246 0.487 4.1451
                    CHANNELS 3 Zrotation Xrotation Yrotation
                    JOINT lIndex2
                    {
                      OFFSET 3.4052 -1.454 2.7682
                      CHANNELS 3 Zrotation Xrotation Yrotation
                      JOINT lIndex2_End
                      {
                        OFFSET 1.4531 -1.795 1.2713
                        CHANNELS 3 Zrotation Xrotation Yrotation
                        End Site
                        {
                          OFFSET 0.0145 -0.0179 0.0127
                        }
                      }
                    }
                  }
                  JOINT lMid1
                  {
                    OFFSET 5.6954 0.21 2.1184
                    CHANNELS 3 Zrotation Xrotation Yrotation
                    JOINT lMid2
                    {
                      OFFSET 3.9766 -1.54 2.3863
                      CHANNELS 3 Zrotation Xrotation Yrotation
                      JOINT lMid2_End
                      {
                        OFFSET 1.4042 -1.926 1.125
                        CHANNELS 3 Zrotation Xrotation Yrotation
                        End Site
                        {
                          OFFSET 0.014 -0.0193 0.0113
                        }
                      }
                    }
                  }
                }
                JOINT lCarpal2
                {
                  OFFSET 2.0956 0.66 -0.3894
                  CHANNELS 3 Zrotation Xrotation Yrotation
                  JOINT lRing1
                  {
                    OFFSET 5.0395 -0.09 2.4971
                    CHANNELS 3 Zrotation Xrotation Yrotation
                    JOINT lRing2
                    {
                      OFFSET 3.7921 -1.552 1.4806
                      CHANNELS 3 Zrotation Xrotation Yrotation
                      JOINT lRing2_End
                      {
                        OFFSET 1.4655 -1.808 0.9609
                        CHANNELS 3 Zrotation Xrotation Yrotation
                        End Site
                        {
                          OFFSET 0.0147 -0.0181 0.0096
                        }
                      }
                    }
                  }
                  JOINT lPinky1
                  {
                    OFFSET 4.9141 -1.269 0.3591
                    CHANNELS 3 Zrotation Xrotation Yrotation
                    JOINT lPinky2
                    {
                      OFFSET 3.1477 -1.685 0.8462
                      CHANNELS 3 Zrotation Xrotation Yrotation
                      JOINT lPinky2_End
                      {
                        OFFSET 0.8055 -1.585 0.7955
                        CHANNELS 3 Zrotation Xrotation Yrotation
                        End Site
                        {
                          OFFSET 0.0081 -0.0158 0.008
                        }
                      }
                    }
                  }
                }
              }
            }
          }
        }
        JOINT rCollar
        {
          OFFSET -1.7069 20.075 5.0056
          CHANNELS 3 Zrotation Xrotation Yrotation
          JOINT rShldr
          {
            OFFSET -13.6458 -0.047 -4.849
            CHANNELS 3 Zrotation Xrotation Yrotation
            JOINT rForeArm
            {
              OFFSET -28.3255 -0.9759 2.2888
              CHANNELS 3 Zrotation Xrotation Yrotation
              JOINT rHand
              {
                OFFSET -22.1583 -0.53 10.8316
                CHANNELS 3 Zrotation Xrotation Yrotation
                JOINT rThumb1
                {
                  OFFSET -0.786 0.112 2.5817
                  CHANNELS 3 Zrotation Xrotation Yrotation
                  JOINT rThumb2
                  {
                    OFFSET -0.3601 -0.878 4.2331
                    CHANNELS 3 Zrotation Xrotation Yrotation
                    JOINT rThumb2_End
                    {
                      OFFSET -1.8127 -1.216 2.2227
                      CHANNELS 3 Zrotation Xrotation Yrotation
                      End Site
                      {
                        OFFSET -0.0181 -0.0122 0.0222
                      }
                    }
                  }
                }
                JOINT rCarpal1
                {
                  OFFSET -0.9571 1.114 1.7695
                  CHANNELS 3 Zrotation Xrotation Yrotation
                  JOINT rIndex1
                  {
                    OFFSET -4.1246 0.487 4.1451
                    CHANNELS 3 Zrotation Xrotation Yrotation
                    JOINT rIndex2
                    {
                      OFFSET -3.4052 -1.454 2.7682
                      CHANNELS 3 Zrotation Xrotation Yrotation
                      JOINT rIndex2_End
                      {
                        OFFSET -1.4531 -1.795 1.2713
                        CHANNELS 3 Zrotation Xrotation Yrotation
                        End Site
                        {
                          OFFSET -0.0145 -0.018 0.0127
                        }
                      }
                    }
                  }
                  JOINT rMid1
                  {
                    OFFSET -5.6954 0.21 2.1184
                    CHANNELS 3 Zrotation Xrotation Yrotation
                    JOINT rMid2
                    {
                      OFFSET -3.9766 -1.54 2.3863
                      CHANNELS 3 Zrotation Xrotation Yrotation
                      JOINT rMid2_End
                      {
                        OFFSET -1.4042 -1.926 1.125
                        CHANNELS 3 Zrotation Xrotation Yrotation
                        End Site
                        {
                          OFFSET -0.014 -0.0193 0.0113
                        }
                      }
                    }
                  }
                }
                JOINT rCarpal2
                {
                  OFFSET -2.0956 0.66 -0.3894
                  CHANNELS 3 Zrotation Xrotation Yrotation
                  JOINT rRing1
                  {
                    OFFSET -5.0395 -0.09 2.4971
                    CHANNELS 3 Zrotation Xrotation Yrotation
                    JOINT rRing2
                    {
                      OFFSET -3.7921 -1.552 1.4806
                      CHANNELS 3 Zrotation Xrotation Yrotation
                      JOINT rRing2_End
                      {
                        OFFSET -1.4655 -1.808 0.9609
                        CHANNELS 3 Zrotation Xrotation Yrotation
                        End Site
                        {
                          OFFSET -0.0147 -0.0181 0.0096
                        }
                      }
                    }
                  }
                  JOINT rPinky1
                  {
                    OFFSET -4.9141 -1.269 0.3592
                    CHANNELS 3 Zrotation Xrotation Yrotation
                    JOINT rPinky2
                    {
                      OFFSET -3.1477 -1.685 0.8462
                      CHANNELS 3 Zrotation Xrotation Yrotation
                      JOINT rPinky2_End
                      {
                        OFFSET -0.8055 -1.585 0.7955
                        CHANNELS 3 Zrotation Xrotation Yrotation
                        End Site
                        {
                          OFFSET -0.0081 -0.0158 0.008
                        }
                      }
                    }
                  }
                }
              }
            }
          }
        }
      }
    }
  }
  JOINT lThigh
  {
    OFFSET 8.367 -8.2066 0.5982
    CHANNELS 3 Zrotation Xrotation Yrotation
    JOINT lShin
    {
      OFFSET 2.1923 -43.463 -0.4932
      CHANNELS 3 Zrotation Xrotation Yrotation
      JOINT lFoot
      {
        OFFSET 0.7333 -45.8593 -2.6451
        CHANNELS 3 Zrotation Xrotation Yrotation
        End Site
        {
          OFFSET 2.6618 -4.2699 12.3931
        }
      }
    }
  }
  JOINT rThigh
  {
    OFFSET -8.367 -8.2066 0.5982
    CHANNELS 3 Zrotation Xrotation Yrotation
    JOINT rShin
    {
      OFFSET -2.1923 -43.463 -0.4931
      CHANNELS 3 Zrotation Xrotation Yrotation
      JOINT rFoot
      {
        OFFSET -0.7333 -45.8593 -2.6451
        CHANNELS 3 Zrotation Xrotation Yrotation
        End Site
        {
          OFFSET -2.6618 -4.2699 12.3931
        }
      }
    }
  }
}
MOTION
Frames:	4
Frame Time:	0.0333333
-15.6179 -0.880151 -20.6467 -180 -89.9981 -180 -5.67445 11.7107 -3.89524 -10.8643 23.7344 -6.78332 -10.8643 23.7344 -6.78331 -10.3258 -5.05675 -14.4933 9.62154 -10.6585 31.1533 -32.8346 12.4814 -1.42436 -18.4662 -74.1277 31.1512 16.1622 59.7303 -13.6763 84.6114 1.34537 -12.2883 -3.18055e-015 1.11319e-014 6.36111e-015 2.64834e-031 4.77083e-015 -3.18055e-015 -7.06225e-031 6.36111e-015 6.36111e-015 -3.18055e-015 6.36111e-015 6.36111e-015 1.41245e-030 -3.18055e-015 2.54444e-014 0 0 -6.36111e-015 -1.59028e-015 0 -6.36111e-015 1.41245e-030 -3.18055e-015 2.54444e-014 0 0 -6.36111e-015 -1.59028e-015 0 -6.36111e-015 -3.18055e-015 6.36111e-015 6.36111e-015 1.41245e-030 -3.18055e-015 2.54444e-014 0 0 -6.36111e-015 -1.59028e-015 0 -6.36111e-015 1.41245e-030 -3.18055e-015 2.54444e-014 0 0 -6.36111e-015 -1.59028e-015 0 -6.36111e-015 21.1467 -32.2405 -37.4516 46.5591 51.9666 -27.7782 -81.8074 -6.51988 23.4165 -6.05415 6.23063 9.38658 -6.16826e-007 -6.37599e-008 -2.05804e-006 1.11816e-015 4.96962e-017 -7.95139e-016 1.70691e-006 2.91572e-008 -1.71975e-006 -6.70898e-016 2.98177e-016 -7.95139e-016 -6.16826e-007 -6.37599e-008 -2.05804e-006 -4.53478e-016 4.96962e-017 -0 1.70691e-006 2.91572e-008 -1.71975e-006 -6.16826e-007 -6.37599e-008 -2.05804e-006 -4.53478e-016 4.96962e-017 -0 1.70691e-006 2.91572e-008 -1.71975e-006 -6.70898e-016 2.98177e-016 -7.95139e-016 -6.16826e-007 -6.37599e-008 -2.05804e-006 -4.53478e-016 4.96962e-017 -0 1.70691e-006 2.91572e-008 -1.71975e-006 -6.16826e-007 -6.37599e-008 -2.05804e-006 -4.53478e-016 4.96962e-017 -0 1.70691e-006 2.91572e-008 -1.71975e-006 34.9312 -81.2794 61.7595 31.4295 71.6533 -27.5276 20.2684 52.7082 -37.0724 -78.5036 -30.1314 -70.4065 -145.558 76.583 138.759 -59.0944 19.4898 71.1318 
-15.618 -0.88021 -20.6467 -180 -89.9981 -180 -5.67332 11.7349 -3.90199 -10.8601 23.7833 -6.79566 -10.8601 23.7833 -6.79565 -9.99597 -5.21482 -14.9376 9.84564 -10.8399 31.2108 -32.7102 12.4436 -1.55193 -18.4662 -74.1277 31.1512 16.1621 59.7303 -13.6763 84.6114 1.34536 -12.2883 1.38423e-006 -1.83583e-007 2.16181e-006 8.82781e-032 -1.59028e-015 3.18055e-015 -1.38423e-006 1.83583e-007 -2.16181e-006 -3.18055e-015 1.59028e-015 -0 1.38423e-006 -1.83583e-007 2.16181e-006 -7.95139e-015 -1.59028e-015 -3.18055e-015 -1.38423e-006 1.83583e-007 -2.16181e-006 1.38423e-006 -1.83583e-007 2.16181e-006 -7.95139e-015 -1.59028e-015 -3.18055e-015 -1.38423e-006 1.83583e-007 -2.16181e-006 -3.18055e-015 1.59028e-015 -0 1.38423e-006 -1.83583e-007 2.16181e-006 -7.95139e-015 -1.59028e-015 -3.18055e-015 -1.38423e-006 1.83583e-007 -2.16181e-006 1.38423e-006 -1.83583e-007 2.16181e-006 -7.95139e-015 -1.59028e-015 -3.18055e-015 -1.38423e-006 1.83583e-007 -2.16181e-006 21.1788 -32.2824 -37.3559 46.5591 51.9666 -27.7782 -81.8074 -6.51988 23.4165 -6.05415 6.23063 9.38659 -2.3233e-015 -3.97569e-016 7.95139e-016 -7.51655e-016 -2.98177e-016 1.59028e-015 -7.70291e-016 -1.98785e-016 -7.95139e-016 -2.3233e-015 -1.98785e-016 7.95139e-016 -7.76503e-016 -3.97569e-016 7.15625e-015 7.82715e-016 -5.96354e-016 1.59028e-015 7.45443e-016 0 -0 -7.76503e-016 -3.97569e-016 7.15625e-015 7.82715e-016 -5.96354e-016 1.59028e-015 7.45443e-016 0 -0 -2.3233e-015 -1.98785e-016 7.95139e-016 -7.76503e-016 -3.97569e-016 7.15625e-015 7.82715e-016 -5.96354e-016 1.59028e-015 7.45443e-016 0 -0 -7.76503e-016 -3.97569e-016 7.15625e-015 7.82715e-016 -5.96354e-016 1.59028e-015 7.45443e-016 0 -0 34.9308 -81.2794 61.7591 31.4292 71.6532 -27.5273 20.2684 52.7083 -37.0724 -78.4396 -30.2254 -70.2996 -145.558 76.5829 138.755 -58.9835 19.5682 71.087 
-15.618 -0.880265 -20.6467 -180 -89.9981 -180 -5.67224 11.7576 -3.90827 -10.8561 23.8289 -6.80714 -10.8561 23.8289 -6.80714 -9.66748 -5.37433 -15.3808 10.07 -11.0211 31.2692 -32.5945 12.4083 -1.67064 -18.4663 -74.1277 31.1511 16.1621 59.7303 -13.6763 84.6114 1.34535 -12.2883 -5.16184e-007 9.4289e-007 4.20031e-006 -4.41391e-031 -1.59028e-015 -1.59028e-014 1.59028e-015 0 -6.36111e-015 -3.53113e-031 -1.59028e-015 -1.27222e-014 -5.16184e-007 9.4289e-007 4.20031e-006 3.18055e-015 -4.77083e-015 -0 -1.59028e-015 1.59028e-015 -3.18055e-015 -5.16184e-007 9.4289e-007 4.20031e-006 3.18055e-015 -4.77083e-015 -0 -1.59028e-015 1.59028e-015 -3.18055e-015 -3.53113e-031 -1.59028e-015 -1.27222e-014 -5.16184e-007 9.4289e-007 4.20031e-006 3.18055e-015 -4.77083e-015 -0 -1.59028e-015 1.59028e-015 -3.18055e-015 -5.16184e-007 9.4289e-007 4.20031e-006 3.18055e-015 -4.77083e-015 -0 -1.59028e-015 1.59028e-015 -3.18055e-015 21.2087 -32.3215 -37.2668 46.5591 51.9667 -27.7782 -81.8074 -6.51988 23.4165 -6.05415 6.23063 9.38658 -6.7711e-016 1.98785e-016 7.95139e-016 -2.28602e-015 1.98785e-016 1.59028e-015 -6.64686e-016 0 -0 9.19379e-016 1.98785e-016 -0 -2.34814e-015 9.93923e-017 7.15625e-015 -7.51655e-016 9.93923e-017 7.95139e-016 -7.57867e-016 0 -0 -2.34814e-015 9.93923e-017 7.15625e-015 -7.51655e-016 9.93923e-017 7.95139e-016 -7.57867e-016 0 -0 9.19379e-016 1.98785e-016 -0 -2.34814e-015 9.93923e-017 7.15625e-015 -7.51655e-016 9.93923e-017 7.95139e-016 -7.57867e-016 0 -0 -2.34814e-015 9.93923e-017 7.15625e-015 -7.51655e-016 9.93923e-017 7.95139e-016 -7.57867e-016 0 -0 34.9304 -81.2793 61.7586 31.4289 71.653 -27.5271 20.2684 52.7084 -37.0725 -78.3799 -30.3126 -70.1999 -145.557 76.5829 138.751 -58.8802 19.6411 71.0452 
-15.6181 -0.880321 -20.6467 -180 -89.9981 -180 -5.67114 11.7802 -3.91454 -10.852 23.8745 -6.81863 -10.852 23.8745 -6.81863 -9.34066 -5.53743 -15.8227 10.2947 -11.202 31.3282 -32.4789 12.3726 -1.78927 -18.4662 -74.1278 31.1511 16.1622 59.7303 -13.6763 84.6114 1.34535 -12.2883 -2.18943e-007 -7.28383e-007 2.38561e-006 3.90023e-008 -6.43777e-007 4.38632e-006 1.04266e-006 2.13954e-006 -4.07526e-007 -8.82781e-032 -1.59028e-015 -3.18055e-015 -2.18943e-007 -7.28383e-007 2.38561e-006 3.90023e-008 -6.43776e-007 4.38632e-006 1.04266e-006 2.13954e-006 -4.07526e-007 -2.18943e-007 -7.28383e-007 2.38561e-006 3.90023e-008 -6.43776e-007 4.38632e-006 1.04266e-006 2.13954e-006 -4.07526e-007 -8.82781e-032 -1.59028e-015 -3.18055e-015 -2.18943e-007 -7.28383e-007 2.38561e-006 3.90023e-008 -6.43776e-007 4.38632e-006 1.04266e-006 2.13954e-006 -4.07526e-007 -2.18943e-007 -7.28383e-007 2.38561e-006 3.90023e-008 -6.43776e-007 4.38632e-006 1.04266e-006 2.13954e-006 -4.07526e-007 21.2388 -32.3604 -37.1775 46.5591 51.9666 -27.7782 -81.8074 -6.51987 23.4165 -6.05415 6.23064 9.38658 8.43909e-007 1.4789e-007 1.03454e-008 1.23688e-006 5.73212e-007 -9.9099e-007 -5.21869e-009 1.06141e-007 9.81794e-009 3.67752e-015 -9.93923e-017 -0 8.43909e-007 1.4789e-007 1.03454e-008 1.23688e-006 5.73212e-007 -9.9099e-007 -5.21869e-009 1.06141e-007 9.81794e-009 8.43909e-007 1.4789e-007 1.03454e-008 1.23688e-006 5.73212e-007 -9.9099e-007 -5.21869e-009 1.06141e-007 9.81794e-009 3.67752e-015 -9.93923e-017 -0 8.43909e-007 1.4789e-007 1.03454e-008 1.23688e-006 5.73212e-007 -9.9099e-007 -5.21869e-009 1.06141e-007 9.81794e-009 8.43909e-007 1.4789e-007 1.03454e-008 1.23688e-006 5.73212e-007 -9.9099e-007 -5.21869e-009 1.06141e-007 9.81794e-009 34.9299 -81.2792 61.7582 31.4286 71.6529 -27.5268 20.2684 52.7085 -37.0725 -78.3197 -30.4 -70.0999 -145.556 76.583 138.748 -58.7769 19.714 71.0031 
